<?xml version="1.0" encoding="utf-8"?>
<!-- Generator: Adobe Illustrator 27.1.1, SVG Export Plug-In . SVG Version: 6.00 Build 0)  -->
<svg version="1.1" xmlns="http://www.w3.org/2000/svg" xmlns:xlink="http://www.w3.org/1999/xlink" x="0px" y="0px"
	 viewBox="0 0 1920 1080" style="enable-background:new 0 0 1920 1080;" xml:space="preserve">
<style type="text/css">
	.st0{fill:#CC6666;}
	.st1{fill:#FFFFFF;}
	.st2{font-family:'FranklinGothic-Medium';}
	.st3{font-size:918.114px;}
	.st4{fill:#66CCCC;}
	.st5{fill:#FFFFFF;stroke:#000000;stroke-miterlimit:10;}
</style>
<g id="Слой_2">
	<rect x="-6" y="-9" class="st0" width="1936" height="1097"/>
	<text id="R" transform="matrix(1.0051 0 0 1 146 810.4688)" class="st1 st2 st3">R</text>
	
		<text id="R_00000044160295439669517600000006427990946708807091_" transform="matrix(1.0098 0 0 1 67.2852 810.4688)" class="st4 st2 st3">R</text>
</g>
<g id="Слой_1">
	<g>
		<ellipse class="st1" cx="970.6" cy="201.5" rx="30.7" ry="29.5"/>
	</g>
	<g>
		<path class="st1" d="M937.6,379.5c-1,0-1.8-0.7-1.8-1.5s0.8-1.5,1.8-1.5s1.8,0.7,1.8,1.5S938.6,379.5,937.6,379.5z"/>
		<path d="M937.6,377c0.7,0,1.3,0.5,1.3,1s-0.6,1-1.3,1s-1.3-0.5-1.3-1S936.9,377,937.6,377 M937.6,376c-1.3,0-2.3,0.9-2.3,2
			s1,2,2.3,2c1.3,0,2.3-0.9,2.3-2S938.9,376,937.6,376L937.6,376z"/>
	</g>
	<g>
		<ellipse class="st1" cx="902.4" cy="706" rx="31.8" ry="191"/>
	</g>
	<g>
		<ellipse class="st1" cx="972.3" cy="108.5" rx="76.7" ry="81.5"/>
	</g>
	<g>
		<ellipse class="st1" cx="971.7" cy="462.5" rx="101.2" ry="67.5"/>
	</g>
	<g>
		
			<ellipse transform="matrix(2.408755e-02 -0.9997 0.9997 2.408755e-02 622.3301 1286.8101)" class="st1" cx="970.3" cy="324.7" rx="111.5" ry="133"/>
	</g>
	<g>
		<ellipse class="st1" cx="835.9" cy="441" rx="27.9" ry="210"/>
	</g>
	<g>
		<ellipse class="st1" cx="902.8" cy="890" rx="23.3" ry="41"/>
	</g>
	<g>
		<ellipse class="st1" cx="836.4" cy="651.5" rx="17.1" ry="31.5"/>
	</g>
	<g>
		<ellipse class="st1" cx="819.4" cy="659.5" rx="5.7" ry="15.5"/>
	</g>
	<g>
		<ellipse class="st1" cx="830.7" cy="683.5" rx="5.7" ry="15.5"/>
	</g>
	<g>
		<ellipse class="st1" cx="853.5" cy="659.5" rx="5.7" ry="15.5"/>
	</g>
	<g>
		<ellipse class="st1" cx="842.1" cy="683.5" rx="5.7" ry="15.5"/>
	</g>
	<path class="st5" d="M1063.1,497.4"/>
	<g>
		<ellipse class="st1" cx="973.4" cy="548" rx="102.9" ry="46"/>
	</g>
	<g>
		<ellipse class="st1" cx="931.3" cy="102" rx="15.3" ry="14"/>
	</g>
	<g>
		<ellipse class="st1" cx="1007.5" cy="102" rx="15.3" ry="14"/>
	</g>
	<g>
		<ellipse class="st1" cx="1104.1" cy="438" rx="27.9" ry="210"/>
	</g>
	<g>
		<ellipse class="st1" cx="1104.7" cy="648.5" rx="17.1" ry="31.5"/>
	</g>
	<g>
		<ellipse class="st1" cx="1087.7" cy="656.5" rx="5.7" ry="15.5"/>
	</g>
	<g>
		<ellipse class="st1" cx="1099" cy="680.5" rx="5.7" ry="15.5"/>
	</g>
	<g>
		<ellipse class="st1" cx="1121.8" cy="656.5" rx="5.7" ry="15.5"/>
	</g>
	<g>
		<ellipse class="st1" cx="1110.4" cy="680.5" rx="5.7" ry="15.5"/>
	</g>
	<g>
		<ellipse class="st1" cx="1036.5" cy="709" rx="31.8" ry="191"/>
	</g>
	<g>
		<ellipse class="st1" cx="1036.9" cy="893" rx="23.3" ry="41"/>
	</g>
	<path class="st1" d="M1073,496.3"/>
	<g>
		<ellipse class="st4" cx="986.1" cy="201.5" rx="30.7" ry="29.5"/>
	</g>
	<g>
		<path class="st1" d="M953.1,379.5c-1,0-1.8-0.7-1.8-1.5s0.8-1.5,1.8-1.5s1.8,0.7,1.8,1.5S954.1,379.5,953.1,379.5z"/>
		<path d="M953.1,377c0.7,0,1.3,0.5,1.3,1s-0.6,1-1.3,1s-1.3-0.5-1.3-1S952.4,377,953.1,377 M953.1,376c-1.3,0-2.3,0.9-2.3,2
			s1,2,2.3,2c1.3,0,2.3-0.9,2.3-2S954.4,376,953.1,376L953.1,376z"/>
	</g>
	<g>
		<ellipse class="st4" cx="917.9" cy="706" rx="31.8" ry="191"/>
	</g>
	<g>
		<ellipse class="st4" cx="987.8" cy="108.5" rx="76.7" ry="81.5"/>
	</g>
	<g>
		<ellipse class="st4" cx="987.2" cy="462.5" rx="101.2" ry="67.5"/>
	</g>
	<g>
		
			<ellipse transform="matrix(2.408755e-02 -0.9997 0.9997 2.408755e-02 637.4568 1302.3055)" class="st4" cx="985.8" cy="324.7" rx="111.5" ry="133"/>
	</g>
	<g>
		<ellipse class="st4" cx="851.4" cy="441" rx="27.9" ry="210"/>
	</g>
	<g>
		<ellipse class="st4" cx="918.3" cy="890" rx="23.3" ry="41"/>
	</g>
	<g>
		<ellipse class="st4" cx="851.9" cy="651.5" rx="17.1" ry="31.5"/>
	</g>
	<g>
		<ellipse class="st4" cx="834.9" cy="659.5" rx="5.7" ry="15.5"/>
	</g>
	<g>
		<ellipse class="st4" cx="846.2" cy="683.5" rx="5.7" ry="15.5"/>
	</g>
	<g>
		<ellipse class="st4" cx="869" cy="659.5" rx="5.7" ry="15.5"/>
	</g>
	<g>
		<ellipse class="st4" cx="857.6" cy="683.5" rx="5.7" ry="15.5"/>
	</g>
	<path class="st5" d="M1078.6,497.4"/>
	<g>
		<ellipse class="st4" cx="988.9" cy="548" rx="102.9" ry="46"/>
	</g>
	<g>
		<ellipse class="st1" cx="946.8" cy="102" rx="15.3" ry="14"/>
	</g>
	<g>
		<ellipse class="st1" cx="1023" cy="102" rx="15.3" ry="14"/>
	</g>
	<g>
		<ellipse class="st4" cx="1119.6" cy="438" rx="27.9" ry="210"/>
	</g>
	<g>
		<ellipse class="st4" cx="1120.2" cy="648.5" rx="17.1" ry="31.5"/>
	</g>
	<g>
		<ellipse class="st4" cx="1103.2" cy="656.5" rx="5.7" ry="15.5"/>
	</g>
	<g>
		<ellipse class="st4" cx="1114.5" cy="680.5" rx="5.7" ry="15.5"/>
	</g>
	<g>
		<ellipse class="st4" cx="1137.3" cy="656.5" rx="5.7" ry="15.5"/>
	</g>
	<g>
		<ellipse class="st4" cx="1125.9" cy="680.5" rx="5.7" ry="15.5"/>
	</g>
	<g>
		<ellipse class="st4" cx="1052" cy="709" rx="31.8" ry="191"/>
	</g>
	<g>
		<ellipse class="st4" cx="1052.4" cy="893" rx="23.3" ry="41"/>
	</g>
	<path class="st1" d="M1088.5,496.3"/>
</g>
<g id="Слой_3">
</g>
</svg>
