<?xml version="1.0" encoding="utf-8"?>
<!-- Generator: Adobe Illustrator 27.1.1, SVG Export Plug-In . SVG Version: 6.00 Build 0)  -->
<svg version="1.1" id="Слой_1" xmlns="http://www.w3.org/2000/svg" xmlns:xlink="http://www.w3.org/1999/xlink" x="0px" y="0px"
	 viewBox="0 0 1366 768" style="enable-background:new 0 0 1366 768;" xml:space="preserve">
<style type="text/css">
	.st0{fill:#4584FF;}
	.st1{fill:#FFFFFF;}
	.st2{fill:#66CC66;}
	.st3{fill:#CC6666;}
</style>
<rect x="244" y="-149" class="st0" width="1297" height="935"/>
<path class="st1" d="M897.9,267c-25.2,0-49.2-3.8-69.4-7.5c-14.2-2.6-28.1-5.4-42.2-10.7c-14.1-5.3-31.9-13.4-44.1-29.9
	c-14.8-19.8-12.9-43.1-11.8-57c1.2-14.7,3.9-30,8.2-45.5c8.2-29.6,20.9-57.1,32.1-81.4c9.4-20.3,23.5-50.9,53.7-66.4
	c13-6.7,27.9-9.9,45.4-9.9c2.4,0,5,0.1,7.6,0.2c1.5,0.1,3,0.1,4.5,0.2c10.9,0.5,24.1,1,36.3,3.6c9,0.7,17.8,3,26.1,6.8
	c30.7,14.2,44.9,43.4,56.3,66.8c1,2,1.9,3.9,2.9,5.9c12.3,24.9,25.8,54.1,30.9,86.8c2.7,17.6,2.9,34.6,0.5,50.7
	c-1.3,8.5-5.1,34.6-25.3,52.1c-21,18.3-51.5,30.1-88.1,33.9C913.9,266.6,906,267,897.9,267z"/>
<path class="st1" d="M972.4,697.9c-17.7,0-35-5.5-51.2-16.2c-1-0.7-2.1-1.4-3.2-2.2c-0.6-0.4-1.3-0.9-2.1-1.4
	c-1.7,0.9-3.7,1.9-5.9,2.8c-8.3,3.4-17.1,5.1-26.2,5.1c-14.8,0-29.5-4.7-41.5-13.3c-0.8-0.6-1.5-1.1-2.2-1.7
	c-2.8,0.3-5.4,0.4-8.1,0.4c-8.1,0-16-1.2-23.5-3.7c-9.5-3.1-16.3-7.8-21.8-11.6c0,0-0.1,0-0.1-0.1c-0.2,0-0.4,0.1-0.7,0.1
	c-0.8,0.1-1.5,0.2-2.3,0.3c-3.8,0.5-7.2,0.8-10.5,0.8c-11.1,0-21-2.9-29.5-8.5c-11.2-7.4-17.7-17.8-22.5-27
	c-8.1-15.2-13.2-31.7-15.1-48.9c-2.8-24.6,0.8-49.5,10.6-72c1.2-4.6,2.7-9.2,4.4-13.5c7.3-18.2,19.8-34.5,35.4-46.1
	c13.9-10.3,31.3-17.5,53.2-22c11.8-2.4,24.3-3.6,36.9-3.6c22.6,0,46.1,3.8,69.9,11.4c5,1.6,10.1,3.4,15.4,5.4c1.8,0.5,3.6,1.2,5.2,2
	c23.2,9.2,47,21.6,74.7,38.9c12.3,7.7,30,20.5,41.9,42.5c9.1,17,15.1,36,17.4,54.9c4.9,41.4-9.6,80.8-38.7,105.3
	c-15.2,12.8-34.4,20.5-54.1,21.8C976.1,697.8,974.2,697.9,972.4,697.9z"/>
<path class="st2" d="M566.1,250.6c-1.6-1.3-3.6-2-5.3-3.1c-2.3-1.5-4.5-3.2-7-4.3c-3.8-1.7-8-2.1-11.7,0c-5.3,3.1-7.8,8.6-15,7.5
	c-3.2-0.5-5,2.9-4.2,5c-0.2,0.9-0.1,1.8,0.3,2.7c1.8,3.5,6.2,6.3,9.5,8.2c4.4,2.3,8.9,2.8,13.7,2.2c2.8-0.3,5.5-1,8.2-1.3
	c2.3-0.2,4.6,0.1,6.9-0.3c3.6-0.7,5.9-3.3,6.9-6.7C569.7,256.8,569.2,253.1,566.1,250.6z M551.7,261c1.6-0.3,3.4-0.6,4.5-0.5
	C554.7,260.7,553.2,260.8,551.7,261z"/>
<path class="st3" d="M1029.3,550.2c-3.2-8.1-6.6-16.8-10.9-24.5c-4-7.1-11.1-10.9-16.4-16.8c-5.7-6.4-11.8-10.6-19.4-14.6
	c-17.6-9.1-35.1-18.8-53-27.2c-33.8-15.9-71.1-15.5-107.5-12.1c-16.1,1.5-33.7,3.3-46.6,14.1c-6.7,5.6-10.6,13.3-14,21.2
	c-1.9,4.4-3.7,8.8-6.1,13c-2.1,3.7-5.4,6.8-6,11.2c-0.1,0.8,0,1.5,0.3,2.1c0.2,1.1,0.9,2.2,2.3,2.7c30.2,11.6,62.5,14.4,93.9,21.5
	c12.9,2.9,25.6,6.5,38.1,10.7c-1,1.5-1,3.6,1.1,4.8c7,4,14.4,7.2,22,9.8c27.6,11.4,56.3,20.1,85.7,25.3c7.4,1.3,14.3,1.4,20.6-3.1
	c5.6-4,9.5-10,12.7-16C1029.9,564.9,1032.6,558.4,1029.3,550.2z"/>
<path class="st3" d="M1242.9,239.9c-10-2.1-20.1,0.7-30.1,1.1c-9.7,0.4-19.5-0.8-29.3-1.8c-0.5-1-1.5-1.7-2.9-1.7
	c-10.3-0.1-21-1.1-31.4-0.3c-6.2,0.5-12.6,4.7-9.7,11.6c2.9,7,13.2,10,19.7,12.2c8.9,3,18.3,4.6,27.6,5.6c10,1,20.2,1.3,30.3,1.4
	c9.2,0.1,19.3,1.2,28.3-1c6.1-1.5,13-6.1,12.8-13.1C1258.1,245.9,1249.7,241.3,1242.9,239.9z"/>
<path class="st3" d="M604.8,223.6c-7.4-3-15.5-3.8-23.4-4c-4.4-0.1-8.9,0-13.3,0.3c-1.7,0.1-3.3,0.2-4.8,0.9c-0.4,0.2-2.7,2-3.4,2.5
	c-2.1-1.3-6,0.6-5.4,4c0.2,1.2,0.3,2.4,0.4,3.7c-2.4,1.5-3.7,3.2-4.4,6c-0.3,1.4,0.2,3.3,1.6,4c0.7,0.3,1.3,0.6,2,0.7
	c1.9,2.2,4.7,4,7.1,5.3c3.6,2,6.2,4.9,6.8,9.1c0.4,3-1.4,5.7-0.9,8.6c1.2,7.3,13.2,4.1,17.5,2.3c7.4-3.2,15.3-7.4,21.9-12
	c5.8-4,9.9-10,9.9-17.2C616.2,229.8,611.6,226.3,604.8,223.6z"/>
<path class="st3" d="M552.7,228.7c-0.2-1.9-1.7-3-3.2-3.3c-0.5-0.8-1.4-1.2-2.7-1.1c-2.8,0.3-2.9,1.5-4.5,3.2
	c-0.3,0.5-0.5,0.7-0.4,0.8c-0.8,0-1.7,0.1-2.5,0.1c-2.2,0.1-4.5,0.2-6.7,0.3c-8.7,0.3-17.3,0.3-26,0.7c-8.1,0.3-16.4,0.7-24.4,2.2
	c-5.5,1-10.1,3.8-11.4,9.1c-0.2,0.4-0.4,0.7-0.6,1.2c-1.4,3.5-0.1,7.2,2.2,10c2.9,3.4,7.1,5.1,11.3,6.5c1.8,0.6,3.5,1.2,5.3,1.7
	c3.7,2.6,7.9,3.9,12.6,3.7c0.9,0,1.7-0.4,2.2-0.9c6.1,2.4,12.2,4.9,19,4.6c2.8-0.1,4.9-3.9,2.5-6c-4.6-3.9-1.5-9.4,2.5-12.3
	c3.9-2.8,8.7-3.9,13.1-5.7C547.2,241.1,553.6,236.4,552.7,228.7z"/>
<path d="M1041,574.1c-1.8-15.5-6.7-30.6-14-44.2c-7.4-13.8-18.4-23.2-31.3-31.3c-22.7-14.2-46.3-27.3-71.2-37
	c-0.6-0.4-1.3-0.6-1.9-0.7c-5.1-1.9-10.2-3.8-15.3-5.4c-29.4-9.4-61.3-13.1-91.7-6.9c-14.5,2.9-29.2,7.7-41.3,16.6
	c-11.2,8.3-20.2,20-25.4,33.2c-1.6,3.9-2.8,8-3.8,12.1c-8.4,18.2-11.6,38.8-9.3,58.9c1.5,13.4,5.5,26.4,11.8,38.3
	c3.2,6,6.9,12.3,12.6,16.1c5.8,3.9,12.7,3.9,19.3,3c6.9-0.9,13.3-2.4,19.6,1.6c6.2,4,11.5,8.5,18.6,10.8c7.5,2.5,14.9,2.7,22.6,1.6
	c3.6-0.5,7-1,10.4,0.7c3.3,1.8,5.9,4.6,8.9,6.8c11.2,8,26.1,10.1,38.9,4.8c6.4-2.6,12.1-7.8,19.4-6.7c7.3,1.1,13.7,6.2,19.7,10.2
	c11.7,7.8,24.3,12,38.3,11.1c13.3-0.9,26.4-6.1,36.7-14.8C1035.4,634,1044.5,603.3,1041,574.1z M1026.2,554.5
	C1026.2,554.5,1026.2,554.5,1026.2,554.5c0.5,1.6,3.4,5.7,3.9,7.4c-0.8,1.1-1.6,2.2-2.6,3.2c0,0-0.1-0.1-0.1-0.1
	c-2.7-2-5.5-4-8.3-5.9C1021.5,557.6,1023.9,556,1026.2,554.5z M1009.6,552.8c-2.4-1.5-5-2.9-7.6-2.7c-2,0.1-3.8,1.3-5.9,1.5
	c-2.3,0.3-4.7-0.2-7-0.1c-4.7,0-8.4,2.4-12.9,3.5c-3.9,1-8-0.6-11.8,1.3c-0.2,0.1-0.4,0.2-0.6,0.3c-6.3-2.7-12.6-5.4-19-8.1
	c0.3-0.1,0.5-0.2,0.8-0.3c5.7-1.9,11.8-0.6,17.5,0.4c5.2,0.9,10.4,1.6,15.7,0.9c5.5-0.7,11-2.5,16.6-2.6c5.9-0.1,11.2,2.4,16.6,4.3
	C1011.3,551.7,1010.5,552.2,1009.6,552.8z M1003.4,556.8l-15.5,10.1c-4.2-1.8-8.4-3.6-12.6-5.4c0,0,0.1,0,0.1,0
	c3.8-0.5,7.1-2.6,10.8-3.5c4.1-1,8.3,0.3,12.3-0.5C1000.3,557.1,1001.7,556.4,1003.4,556.8z M955.7,564.5c-0.2,0.1-0.4,0.3-0.6,0.4
	c-5.7,3.5-12.4,4.7-18.6,7.3c-1.8-0.7-3.6-1.3-5.4-2c-7.4-2.7-14.8-5.5-22.2-8.3c3.1-1.7,6.3-3.1,9.7-3.7c5-0.9,10.2-0.3,14.9-2.5
	c0.3-0.1,0.6-0.3,0.8-0.4C941.5,558.3,948.6,561.4,955.7,564.5z M955.8,571.4c2.3-1.1,4.3-2.5,6.2-4.2c4.7,2,9.3,4.1,14,6.1
	c3.8,1.6,9.9,5.9,14.1,4.5c2.3-0.7,4.8-3,6.9-4.4l6.4-4.2c3.4-2.2,6.7-4.4,10.1-6.5c3.3,2.1,6.4,4.4,9.6,6.7
	c-4.3,3.8-9.2,7.1-13.5,10.9c-3,2.7-6.1,5.4-9.5,7.5c-4,2.4-8,2.2-12.4,1.2c-14.3-3.3-28.5-8.4-42.5-13.6
	C948.8,574.2,952.4,573.1,955.8,571.4z M951.9,485.7c5.8,3,11.5,6.1,17.1,9.3c6.6,3.8,13.5,7.5,20.2,11.6c-2.5,0.8-5.1,1.4-7.6,1.5
	c-5.4,0.2-8.2-3.3-12.9-5.1c-4.2-1.6-8.5,0.1-12.7-0.9c-5.1-1.2-7.6-4.9-11.4-8.2c-0.4-0.4-0.9-0.7-1.4-1.1
	C946.2,490.4,949.1,488.1,951.9,485.7z M938.4,497c0.2,0.1,0.4,0.2,0.6,0.3c2.3,1.2,3.8,3.5,5.7,5.3c3.1,3,6.9,5.1,11,5.8
	c2.4,0.4,4.7,0.2,7.2,0.1c3.2-0.2,4.9,0.8,7.6,2.5c7.9,5.1,17,3.2,25.2-0.2c1.7,1.2,3.4,2.4,5,3.7c-0.1,0.1-0.2,0.2-0.2,0.3
	c-3.1,4.3-7.4,8.3-12.8,8.9c-3.1,0.4-5.7-0.8-8.5-1.6c-2.8-0.7-5.1-0.6-8,0c-3.3,0.7-5.2,0.9-8.3-0.7c-1.9-1-3.7-2.3-5.7-3
	c-5-1.7-7.8,0.8-12.3,2.4c-5.2,1.8-12.1-1.4-16.8-3.5c-2.9-1.3-5.8-2.8-8.6-4.4C925.7,507.5,932,502.3,938.4,497z M914.3,517
	c0.3,0.2,0.6,0.4,0.9,0.5c5.4,3,10.9,5.8,16.8,7.7c4.7,1.6,10,3,14.9,1.2c2.6-1,4.8-3.1,7.7-2.6c2.4,0.4,4.6,2.5,6.8,3.6
	c5.8,2.7,10.9-0.8,16.7,0.6c5.5,1.4,10,2.6,15.5,0.3c4.7-2,8.5-5.4,11.5-9.6c0.1-0.1,0.2-0.3,0.2-0.4c0.3,0.2,0.5,0.5,0.8,0.7
	c7.4,6.9,12.6,15.8,16.6,25.3c-1.3,0.8-2.5,1.6-3.8,2.4c-4.1-0.6-8.1-2.6-12-4c-4.8-1.7-9.5-2.5-14.6-1.9
	c-5.8,0.6-11.5,2.5-17.3,2.7c-6,0.2-11.9-1.6-17.8-2.2c-4.9-0.5-10-0.4-14.6,1.5c-1.6,0.7-3,1.6-4.5,2.7c-11.8-5-23.5-10-35.3-15
	c-1-0.4-2-0.8-3-1.3C904.4,525.1,909.4,521.1,914.3,517z M755,513.4c1.7-3.6,1.9-7.8,4-11.1c3.1,0.9,6.3,1.7,9.6,2.4
	c-1.1,1.1-1.9,2.3-2.4,4.2c-0.6,2.5-0.9,5.1-1.1,7.7c-3.4-0.6-6.9-1.2-10.3-1.8C754.8,514.3,754.9,513.8,755,513.4z M823.9,630
	c-7-1.6-12.1-5.7-17.9-9.7c-5.4-3.8-11-5.6-17.6-5.3c-5.9,0.2-12,2.4-17.9,1.6c-6.6-0.9-10.2-7.3-13.2-12.7
	c-3-5.2-5.3-10.8-7.2-16.5c-6.5-20.1-6.4-42.5,0.3-62.5c0.2,0,0.3,0.1,0.5,0.1c31.4,4.8,62,13.6,92,23.9
	c-2.5,12.2-4.7,24.5-6.5,36.9c-2.2,14.9-3.9,30-5.1,45C828.9,630.7,826.4,630.6,823.9,630z M771.8,511.1c0.8-2.5,2.9-3.5,4.8-5
	c7.5,1.2,15.1,2.1,22.6,3.2c-0.4,0.4-0.8,0.8-1.2,1.2c-2.7,3.3-4.1,7.9-4.8,12.2c-7.4-1.9-14.9-3.6-22.4-5.1
	C771,515.4,771.2,513.1,771.8,511.1z M803.5,513.9c2.3-1.9,6.4-2.1,9.9-2.2c0.4,0.1,0.7,0.1,1.1,0.2c11.5,2.4,22.8,5.5,33.9,9.1
	l-1.4,8.1c-0.7,3.1-1.4,6.2-2,9.3c-8.9-3.1-17.9-6-27-8.8c-6.3-1.9-12.6-3.7-18.9-5.4C799.7,520.5,800.8,516.1,803.5,513.9z
	 M854.2,511.8c-8.5-2.9-17.2-5.4-25.9-7.6c1.1-1.8,2.2-3.6,3.9-4.5c2.9-1.5,6.7-1.1,9.9-1.9c1.7-0.4,3.3-1.3,4.9-1.9
	c2.2-0.8,4.1-0.4,6.4,0c4.3,0.7,8.9-0.3,13.1,1.2C862.2,501.8,858,506.6,854.2,511.8z M874.5,489.1c-1.1,1.2-2.3,2.3-3.4,3.5
	c-3.1-1.5-6.6-2.4-10.3-2.4c-5.3-0.1-10.6-1.9-15.7,0c-2.1,0.8-3.9,1.7-6.1,2.1c-2.2,0.4-4.4,0.4-6.6,1c-4.1,1.1-6.4,3.7-8.6,7.3
	c-0.5,0.9-1,1.6-1.5,2.2c-3-0.7-6.1-1.3-9.2-1.9c-10.1-1.9-20.3-2.7-30.5-4.1c0.8-1.7,1.7-3.4,2.9-4.8c2.6-3,6.2-2.4,9.8-2.2
	c2.8,0.1,5.5,0,8.2-0.6c5.8-1.2,11.1-3.8,16.6-5.8c2.8-1,5.7-1.9,8.7-2.2c3-0.3,5.8,0.4,8.8,0.4c5.7,0,10.1-3.5,14.9-6
	c3.1-1.6,6.4-2.4,9.9-1.7c3.2,0.6,5.7,2.8,8.9,3.5c3.5,0.9,7.3,0.4,10.9,0.8c1.6,0.2,3.2,0.5,4.7,0.9
	C882.5,482.1,878,485.5,874.5,489.1z M885.6,472.3c-4.1-0.7-8.4-0.1-12.4-1c-3.6-0.8-6.5-3.3-10.3-3.8c-3.2-0.5-6.4-0.2-9.4,0.8
	c-3,1-5.6,2.8-8.3,4.3c-3.7,2.1-6.4,2.7-10.6,2.4c-6.3-0.6-11.9,0.6-17.7,2.9c-6.1,2.3-12.2,5.4-18.8,5.7
	c-6.4,0.3-12.5-1.3-17.2,4.3c-2,2.4-3.1,5.2-4.4,7.9c-4.5-0.7-9-1.7-13.4-2.9c1.6-2.7,3.3-5.2,5.3-7.6c8.6-10.7,19.9-17.6,32.6-21.9
	c27.1-9.3,56.5-8.8,84.2-2.8c7.2,1.6,14.2,3.5,21.2,5.8c-5,2.5-8.5,4.9-12.9,8.1C890.9,473.5,888.3,472.8,885.6,472.3z M891.7,551.6
	c0.6-4,1.2-8,1.8-12c0.1-0.6,0.2-1.1,0.3-1.6c10.7,4.4,21.4,8.9,32.1,13.5c-3.9,0.5-8,0.4-11.9,1.5c-4.4,1.3-8.4,3.6-12.3,6.1
	c-3.5-1.3-7-2.6-10.4-3.9C891.4,554,891.5,552.8,891.7,551.6z M1016.7,633.7c-14.9,20-42.2,30.4-65.3,18.9
	c-11.8-5.8-21.8-16.8-35.6-17c-6.9-0.1-12.3,3.4-18.3,6.4c-4.9,2.4-10.2,3.6-15.5,3.3c1.7-26.6,4.3-53.1,7.8-79.5
	c13.3,5,26.6,10.1,40,15c9.8,3.6,19.7,7.1,29.6,10.4c9.3,3.1,18.9,6.9,28.5,8.7c10.5,1.9,18.1-2.8,25.9-9.4
	c6.1-5.2,11.7-11,16.7-17.3C1033.3,594.3,1029.7,616.3,1016.7,633.7z"/>
<path d="M779.3,544.1c-3.3,1.8-6.8,2.6-10.5,2c-4.8-0.8-7.2-4.2-10.1-7.8c-2.5-3-7.4,0.5-4.9,3.5c3.8,4.6,6.8,8.7,12.7,10.1
	c5.1,1.2,10.3,0.4,14.9-2C784.7,548,782.7,542.2,779.3,544.1z"/>
<path d="M805.2,595.2c-3.7-1-6.7-2.9-9.5-5.4c-1.9-1.7-3.5-3.1-6.2-3.3c-5.9-0.6-12.5,1.2-18,3.5c-3.6,1.5-1.5,7.3,2.1,5.8
	c4.8-2,13.1-5.2,17.7-1.7c4.2,3.2,7.6,5.8,12.8,7.3C807.9,602.3,808.9,596.2,805.2,595.2z"/>
<path d="M823.7,573.8c-2.9-1-4.3-2.1-6.2-4.4c-1.4-1.6-2.7-2.4-4.7-3.1c-4.9-1.6-10-1.3-15.1-0.8c-3.8,0.3-3.3,6.5,0.6,6.1
	c4.3-0.4,11.1-1.5,14.6,1.7c1.1,1,1.6,2.4,2.8,3.4c1.6,1.3,3.5,2,5.4,2.6C824.8,580.6,827.4,575.1,823.7,573.8z"/>
<path d="M927,590.4c-4.2,2.5-8-2.9-11.5-4.6c-3.2-1.5-7.5-0.4-10.9-0.1c-3.8,0.3-3.3,6.5,0.6,6.1c2.6-0.2,6-1.2,8.4,0
	c2.2,1.1,4.1,3,6.3,4.2c3.9,2.1,6.9,1.7,10.6-0.6C933.8,593.5,930.3,588.4,927,590.4z"/>
<path d="M951.6,627.5c-8.4,2.3-14.2-5.1-21.1-8.4c-6.7-3.2-13.5-1.3-20.2,1.1c-3.6,1.3-1.6,7.1,2.1,5.8c3.9-1.4,8.1-3.1,12.3-2.4
	c3.9,0.7,7,3.5,10.2,5.7c5.7,3.8,12,5.9,18.8,4C957.4,632.2,955.3,626.5,951.6,627.5z"/>
<path d="M986.3,620.9c-5.1,0.8-6.7-3.1-10.8-4.6c-3.6-1.3-8.3-0.9-12.1-0.7c-3.9,0.2-3.3,6.3,0.6,6.1c2.3-0.1,4.5-0.2,6.8,0
	c2.8,0.2,4,1.6,6.2,3.2c2.9,2.1,6.4,2.7,9.8,2.1C990.7,626.4,990.2,620.3,986.3,620.9z"/>
<path d="M1020.6,601.9c-3.8,0.2-6.6,2.4-8.7,5.7c-1.2,1.8-1.8,3.5-4,4.3c-2.4,0.9-5.4,0.6-7.8,0c-3.8-0.8-4.8,5.2-1.1,6.1
	c4.2,0.9,9.1,1,13-1.1c3.8-2.1,4.5-8.6,9.1-8.8C1025,607.8,1024.4,601.7,1020.6,601.9z"/>
<path d="M976.7,641.6c-1.9-0.6-3.4-2.2-5.4-2.8c-2.2-0.6-4.4-0.5-6.5,0.1c-3.7,1-1.6,6.8,2.1,5.8c3.3-0.9,5.9,2.1,8.8,3
	c1.6,0.5,3.2-1,3.5-2.5C979.5,643.3,978.2,642,976.7,641.6z"/>
<path d="M779.9,574.4c-4.7-5.5-11.6-5.5-18.3-6.6c-3.8-0.6-4.9,5.4-1.1,6.1c4.3,0.7,11.3,0.5,14.4,4
	C777.5,580.9,782.5,577.4,779.9,574.4z"/>
<path d="M829.8,552.7c-2.5-1.4-4.6-3.5-7.4-4.1c-2.9-0.5-5,1.2-7.7,1.3c-3.9,0.2-3.3,6.4,0.6,6.1c2-0.1,4.2-1.7,6.1-1.4
	c2.1,0.3,4.1,2.5,5.9,3.5C830.6,560.2,833.2,554.6,829.8,552.7z"/>
<path d="M824.6,607.8c-3.6-0.8-6.6-3.2-10.3-3.3c-3.3-0.1-6.2,1.5-8.5,4c-2.6,2.9,2,6.9,4.6,4c3.7-4.2,9,0.5,13.1,1.4
	C827.3,614.7,828.4,608.6,824.6,607.8z"/>
<path d="M958.6,604c-3.2-0.1-5.3-0.9-8.1-2.2c-1.7-0.8-3.9-1.2-5.8-1c-3.7,0.3-6.2,2.6-7.1,6.3c-1,3.8,4.9,4.9,5.9,1.1
	c0.9-3.4,6.4,0.5,7.9,1c2.5,0.9,5.1,1,7.7,1C963,610.2,962.4,604,958.6,604z"/>
<path class="st1" d="M502.9,462c-4.5,0-8.6-0.1-12.6-0.4c-25.8-1.6-47-11.6-61.3-29c-12.2-14.8-19.7-33.5-22.2-55.5
	c-1.7-14.3-1-27.7-0.4-40.7c0.3-6.9,0.6-13.5,0.5-19.8c-0.2-13-1.6-26.1-4.3-39.1c-0.5-1.9-0.9-3.8-1.3-5.7
	c-0.8-3.8-1.3-8.2-1.3-12.1v-10l1-3.7c7.1-27.4,30.7-53.1,58.6-64.1c22.3-8.8,45.7-11.7,65.7-13.5c9.2-0.8,18.5-1.2,27.7-1.2
	c13.1,0,26.3,0.8,39.3,2.4l0.7,0.1c20.4,2.5,45.8,5.7,66.8,22.8c9.3,7.5,16.4,17.3,20.6,28.2l0.3,0.8l2.6,8.1l0.3,3.1
	c0.5,4.2,0.9,8.5,1.4,12.7c4.2,38.2,8.5,77.6,4.9,118c-0.9,10.5-2.3,20.7-4.1,30.4c-0.2,1.2-0.4,2.5-0.7,3.8
	c-1.5,8.6-3.4,20.3-9.5,30.9c-11.1,19.5-31.7,23.5-40.4,25.3c-11.4,2.3-22.5,3.1-31.8,3.6c-12.9,0.7-25.9,1.3-38.5,1.8
	c-6,0.3-11.9,0.5-17.9,0.8c-4.6,0.2-9.2,0.5-14.1,0.8C523.2,461.4,513.2,462,502.9,462z M567,238 M532,222c-11,1.2-33.8,5.5-45,9
	c-14.9-7.5-32,27-6,27c0.1,0,0.2,0,0.3,0.1c11.6,2.4,20.6,4.1,29.1,5.6c16.7,2.9,30,4.3,42,4.3c3.2,0,6.3-0.1,9.3-0.3
	c13.5-0.9,25.6-1.7,36.4-3.6c18.7-3.3,26.3-26.9,22-28c0-5-3.4-9.4-6-14c-0.3,0.1-22.7-0.2-23,0"/>
<path d="M653.9,235.8l-1.4-4.3c-2.3-6-6.2-11.4-11.6-15.8c-14.5-11.8-34.5-14.2-52.3-16.4c-20.1-2.5-40.5-2.9-60.7-1.1
	c-19.2,1.7-39.3,4.4-57.4,11.5c-17.5,6.8-35.4,24.3-40.5,43.7c0,0,0,4,0,6.2c0,1.8,0.2,4.3,0.7,6.3c0.3,1.5,0.6,3,1,4.5
	c3.2,15,5,30.4,5.2,45.8c0.2,19.1-2.5,38.3-0.3,57.4c1.7,14.5,6.3,28.7,15.6,39.9c10.1,12.3,24.7,17.2,39.9,18.2
	c17.7,1.1,35.8-0.9,53.6-1.7c18.7-0.9,37.5-1.6,56.2-2.6c9.2-0.5,18.5-1.2,27.5-3c7.5-1.5,16-3.4,20.2-10.7
	c4.1-7.2,5.2-17.1,6.7-25.2c1.7-9.1,2.9-18.4,3.7-27.7C663.8,319,658.3,277.3,653.9,235.8z M440.7,263.3c-0.6-4.1-0.3-8.3,0.8-12.3
	c2.8-10,9.5-17.8,17.7-23.6c0,0.1,0,0.2,0,0.3c0,0.1,0,0.3,0,0.3c0,0.2-0.1,0.5-0.2,0.7c0,0.1,0,0.1,0,0.1c0,0,0,0,0,0.1
	c-0.1,0.2-0.2,0.5-0.4,0.7c0,0.1-0.1,0.2-0.2,0.2c-0.1,0.1-0.3,0.3-0.4,0.4c0,0-0.3,0.2-0.4,0.3c-0.2,0.1-0.5,0.3-0.7,0.4
	c-1.5,0.7-1.8,2.9-1.1,4.2c0.9,1.5,2.6,1.8,4.1,1.1c3.2-1.5,5.1-4.9,5.2-8.4c0.1-1.3-0.9-2.4-2-2.9c3-1.8,6.2-3.4,9.4-4.6
	c15.6-6.3,33-9.1,49.6-10.9c17.7-1.9,35.6-2.2,53.3-0.8c1.6,0.1,3.3,0.3,5.1,0.4c-1.7,0.9-4.7,3.6-6.7,2.6c-3.4-1.8-6.5,3.5-3,5.3
	c4.8,2.6,8.6-0.6,12.9-2.6c1.5-0.7,1.8-2.9,1.1-4.2c-0.1-0.3-0.3-0.5-0.5-0.7c11.5,1.1,26.2,3.3,38.3,8.1c-0.9,0.5-1.4,1.5-1.5,2.7
	c-0.7,6.2,4.2,11.3,9.9,12.1c1.6,0.2,3-1.6,3-3.1c0-1.9-1.4-2.9-3-3.1c-2.7-0.4-4.2-3.5-3.9-6c0-0.2,0-0.5,0-0.7
	c13.3,6.6,22,17.2,16.2,34.8c-5,15.2-20,25.3-33.5,31.9c-14.4,7-30.4,10.4-46.2,11.4c-19.6,1.3-39.1-1-58.4-4.4
	c-10-1.7-20-3.7-30-5.8c-8.3-1.7-16.7-3.6-24.6-6.6c-4.3-3.2-7.3-7.8-8.9-12.8C441.4,266.5,441,264.9,440.7,263.3z M651,340
	c-0.5,17.5-2.2,34.9-5.9,52.1c-1.5,7-2,17.1-9.4,19.8c-8.1,2.9-17.1,3.7-25.6,4.4c-17.4,1.4-35,1.8-52.5,2.6
	c-17.3,0.8-34.6,1.8-51.9,2.4c-14.3,0.5-30.2,0.1-41.5-10.1c-9.9-8.9-15-22.1-17-35.2c-3.1-19.7,0.2-39.8,0-59.6
	c-0.1-8.7-0.7-17.4-1.7-26.1c0,0,0.1,0.1,0.2,0.1c0.4,0.3,0.9,0.7,1.6,1.1c15,4.9,36.6,8.7,52,11.5c19.8,3.6,39.9,6.3,60,5.5
	c18-0.7,35.9-4.1,52.5-11.5c13.7-6.1,28-15.4,36.3-28.6C650.2,292.1,651.7,316,651,340z"/>
<path d="M432,250"/>
<path d="M624.3,237.2c-1.1-12.5-12.4-20.2-23.6-21.9c-6.8-1-13.7-0.4-20.5,0.1l-22,1.6l-44.8,3.3c-8.1,0.6-16.3,1.1-24.4,1.8
	c-6.4,0.6-12.9,1.6-18.5,4.9c-10,5.9-14.9,20.5-6.4,29.9c0.5,0.6,1,0.9,1.6,1.2c6.4,6.6,14.9,10.1,23.9,12.2
	c12.9,3,26.3,4.9,39.5,6.3c26.3,2.8,54.5,1.1,77.8-13C616,258.3,625.4,249.1,624.3,237.2z M601.9,235.6c1.2-1.5,2.1-3.3,2.2-5.3
	c0-1.4-0.7-2.6-1.3-3.8c2.5,0.7,4.9,1.7,6.8,3.3c-2.4,3.6-2.2,7.9-3.8,11.8c-2.2,5.3-10,2.6-14.5,4.3c-2.4,0.9-4.4,2.7-6.9,3.4
	c-2.8,0.8-5.8-0.2-8.7,0.1c-1.6,0.2-3.2,0.6-4.6,1.4c-0.5-1.4-1.1-2.7-2-3.8c-0.4-3.1-1-9.6,3.4-9.6c1.9,0,4.2,2.6,5.9,3.5
	c3.9,2,8.4,2.1,12.6,1.1C594.9,241.1,599.2,238.9,601.9,235.6z M553.4,237.6c2.4-2.9,3.4-6.4,3.2-10.1c10.6-0.8,21.1-1.6,31.7-2.1
	c2.4-0.1,5.1-0.2,7.9,0c0.4,1.5,1.5,2.6,1.7,4.2c0.4,3.1-4.4,5.1-6.7,5.9c-2.6,0.9-5.6,1.3-8.3,0.6c-2.5-0.7-4.1-2.6-6.4-3.8
	c-3.9-2.1-8.6-0.9-11.2,2.6c-1.8,2.3-2.4,5-2.5,7.8c-3.4-1.5-7-2.7-10.6-3.8C552.7,238.5,553.1,238.1,553.4,237.6z M487.6,259.1
	c-6.5-1.9-12.8-4.9-16.7-10.6c-0.2-0.3-0.4-0.6-0.7-0.8c-0.9-2.5,0-5.5,1.4-7.7c2.5-3.9,7.1-5.4,11.4-6.3c10.7-2.2,22.1-2,32.9-2.8
	c0,0,0,0,0,0c-0.5,0.5-1,0.9-1.4,1.4c-2,2.3-3.6,5.1-5.9,7.1c-3.2,2.8-7,2.3-10.9,2.1c-5.1-0.2-11.3,0-12.2,6.4
	C485,251.6,485.9,255.5,487.6,259.1z M497.2,261.3c-0.5-0.1-0.9-0.2-1.4-0.3c-2-2.4-3.3-5.2-4-8.3c-0.3-1.5-0.9-3.9,0.7-5
	c0.9-0.6,3.4-0.2,4.5-0.1c5.3,0.2,10.3,0.5,14.8-2.9c3.6-2.8,5.5-7.5,9.2-10c3.7-2.6,8.4-1.7,11.7-5.1c6-0.5,12-1,18-1.4
	c0.3,6.6-6.4,8.3-11.1,11.3c-1.9,1.3-3.6,2.8-5.5,4.1c-2.5,1.7-5,2.1-8,2.6c-3.7,0.7-7.3,2.8-7.9,7c-0.6,4.3,2.7,8.7,5.5,12.5
	C514.9,264.5,506,263,497.2,261.3z M551.6,267.3c-5.4,0.1-10.7-0.1-16-0.5c-1.3-0.1-2.6-0.2-3.9-0.3c-0.1-0.3-0.2-0.5-0.4-0.8
	c-1.8-2.8-4.1-5.5-5.6-8.5c-0.9-1.6-2-3-0.3-4.4c1-0.8,2.5-0.7,3.8-0.9c5.1-0.9,8.2-3.5,12.4-6.5c1.4-1,2.9-1.8,4.4-2.5
	c0.3,0.3,0.7,0.6,1.2,0.8c4.3,1.6,8.6,3.1,12.8,4.7c3.8,1.5,5.8,3.6,5.9,8.1C566,264.4,556.7,263.9,551.6,267.3z M598.5,256.4
	c-9.4,5.1-19.6,8.1-30.1,9.6c1.9-1.8,2.9-4,3.3-6.4c0.5-0.4,0.9-0.9,1.1-1.7c0.7-3.3,5.3-2.2,7.6-2.1c2.6,0.1,4.9-0.1,7.3-1.1
	c2-0.9,3.8-2.3,5.9-3c2.6-0.9,5.4-0.4,8.1-0.7c4-0.4,7.3-2.2,9.1-6c1.5-3,1.6-6.5,2.7-9.6c0,0.1,0.1,0.2,0.1,0.3
	C617,245.3,605.3,252.8,598.5,256.4z"/>
<path d="M574.5,282.6c-1.2,3.6-9.7,1-12.4,1.4c-4,0.7-6.7,3.3-8,7.2c-1.2,3.8,4.6,5.4,5.8,1.6c1.6-5.2,9.5-1.8,13.5-2.6
	c3.3-0.7,5.8-2.7,6.9-6C581.6,280.5,575.8,278.9,574.5,282.6z"/>
<path d="M633.2,236.8c-3.8,0.6-7.5,2.7-8.1,6.9c-0.2,1.7,0.2,3.2,1.1,4.7c1,1.4,3.5,4,0.1,4.5c-3.8,0.5-2.2,6.5,1.6,6
	c3.6-0.5,6.2-3.9,6.1-7.6c0-1.7-0.7-3.3-1.6-4.7c-0.3-0.4-1.4-1.4-1.4-2c0-1.4,2.9-1.7,3.8-1.8C638.6,242.2,636.9,236.3,633.2,236.8
	z"/>
<path d="M487.7,278.3c-5.5,1.4-7.9-3.5-12.5-5.4c-4.1-1.8-8.4-0.8-12.5,0.2c-3.7,1-2.2,6.9,1.6,6c2.5-0.7,5.5-1.6,8.1-0.8
	c2.4,0.8,4,3.2,6.1,4.5c3.3,2.1,7.1,2.4,10.8,1.5C493.1,283.3,491.5,277.4,487.7,278.3z"/>
<path d="M450.6,244c-3.2-2.2-6.2,3.1-3,5.3c2.9,2.1,1.2,6.8,0.4,9.5c-1.1,3.8,4.7,5.4,5.8,1.6C455.5,254.6,456.2,247.9,450.6,244z"
	/>
<path d="M613.7,275.1c-0.3-3.9-6.3-4-6,0c0,0.4-3.3,0.2-3.8,0.3c-1.4,0.1-2.7,0.4-3.9,1c-2.4,1.2-3.9,3.3-4.8,5.8
	c-1.4,3.7,4.4,5.3,5.8,1.6c1.3-3.4,5.2-1.9,7.9-2.6C611.6,280.6,614,278.1,613.7,275.1z"/>
<path d="M550.9,206c-2.8,1.1-5.6,2.2-8.6,1.7c-2-0.3-3.9-1.2-5.9-1.3c-4-0.3-7.5,1.3-10.5,4c-2.9,2.6,1.4,7,4.2,4.4
	c3.9-3.5,7.4-1.4,11.8-0.9c3.7,0.5,7.1-0.6,10.5-1.9C556.1,210.6,554.5,204.6,550.9,206z"/>
<path d="M505.8,213.1c-7.2-1.5-14.9-2.7-21.4,1.7c-3.2,2.2-0.2,7.5,3,5.3c5.1-3.5,11.1-2.3,16.7-1.1
	C508,219.8,509.6,213.9,505.8,213.1z"/>
<path d="M539.8,285.1c-4.2-2.4-9.6-7-14.5-7.2c-5-0.2-10.2,4.1-13.9,7.1c-3,2.5,1.3,6.9,4.2,4.4c3-2.5,7.5-6.1,11.4-4.5
	c3.3,1.4,6.5,3.7,9.7,5.5C540.1,292.4,543.2,287,539.8,285.1z"/>
<path d="M523.6,319.9c-19.8,1.2-39.6-0.9-58.7-6.3c-3.7-1-5.3,4.9-1.6,6c19.6,5.5,40,7.7,60.3,6.5
	C527.4,325.8,527.5,319.6,523.6,319.9z"/>
<path d="M625.4,333.3c-20.6,7.1-41.6,14.2-63.5,14.8c-22.3,0.7-44.2-4.4-65.9-9.4c-3.8-0.9-5.4,5.1-1.6,6
	c22.1,5.1,44.6,10.3,67.5,9.6c22.5-0.7,43.9-7.8,65.1-15.1C630.7,338,629.1,332,625.4,333.3z"/>
<path d="M622,361.6c-28.9,17.2-63.1,9.6-93.7,2.4c-3.8-0.9-5.4,5.1-1.6,6c32.2,7.6,68,15.1,98.3-3C628.4,365,625.3,359.6,622,361.6z
	"/>
<path d="M635.7,382.6c-8.7,9-21.1,11.6-33,12.7c-14.3,1.3-28.7,1.5-43,1.2c-14.9-0.3-29.7-1.3-44.5-3.1c-7.4-0.9-14.9-1.9-22.2-3.2
	c-6.7-1.2-13.2-2.8-18.7-7.1c-3.1-2.4-6.1,3-3,5.3c11,8.6,27.4,9,40.6,10.7c16.4,2.1,32.9,3.2,49.5,3.5c15.2,0.2,30.7,0.2,45.8-1.8
	c12-1.5,23.9-4.9,32.7-14C642.7,384.2,638.4,379.8,635.7,382.6z"/>
<path class="st1" d="M1159.9,460.5c-4.5,0-8.6-0.1-12.6-0.4c-25.8-1.6-47-11.6-61.3-29c-12.2-14.8-19.7-33.5-22.2-55.6
	c-1.7-14.3-1-27.7-0.4-40.7c0.3-6.9,0.6-13.5,0.5-19.8c-0.2-13-1.6-26.1-4.3-39.1c-0.5-1.9-0.9-3.8-1.3-5.7
	c-0.8-3.8-1.3-8.2-1.3-12.1v-10l1-3.7c7.1-27.4,30.7-53.1,58.6-64.1c22.3-8.8,45.7-11.7,65.7-13.5c9.2-0.8,18.5-1.2,27.7-1.2
	c13.1,0,26.3,0.8,39.3,2.4l0.7,0.1c20.4,2.5,45.8,5.7,66.8,22.8c9.3,7.5,16.4,17.3,20.6,28.2l0.3,0.8l2.6,8.1l0.3,3.1
	c0.5,4.2,0.9,8.5,1.4,12.7c4.2,38.2,8.5,77.6,4.9,118c-0.9,10.5-2.3,20.7-4.1,30.4c-0.2,1.2-0.4,2.5-0.7,3.8
	c-1.5,8.6-3.4,20.3-9.5,30.9c-11.1,19.5-31.7,23.5-40.4,25.3c-11.4,2.3-22.5,3.1-31.8,3.6c-12.9,0.7-25.9,1.3-38.5,1.8
	c-6,0.3-11.9,0.5-17.9,0.8c-4.6,0.2-9.2,0.5-14.1,0.8C1180.2,459.8,1170.2,460.5,1159.9,460.5z M1138.3,256.6
	c11.6,2.4,20.6,4.1,29.1,5.6c16.7,2.9,30,4.3,42,4.3c3.2,0,6.3-0.1,9.3-0.3c13.5-0.9,25.3-3.7,35.1-8.5c4.2-2.1,7.5-4,10-5.7
	c-4.2-3.3-7.7-7.4-10.3-12c-0.3,0.1-0.6,0.3-0.9,0.5c-3.9,2.1-7.6-4.4-17.5-4.4c-6.2,0-4.4,2.9-10,0c-2.9-1.5-16.6,2.4-18.9,0.2
	c-7.9,0.1-15.9,2.5-23.8,1.5c-12.4-1.7-33.2,1.9-44.4,5.3c-2.4,4.8,0,8,0,13.5C1138.1,256.5,1138.2,256.5,1138.3,256.6z"/>
<path d="M1310.9,234.3l-1.4-4.3c-2.3-6-6.2-11.4-11.6-15.8c-14.5-11.8-34.5-14.2-52.3-16.4c-20.1-2.5-40.5-2.9-60.7-1.1
	c-19.2,1.7-39.3,4.4-57.4,11.5c-17.5,6.8-35.4,24.3-40.5,43.7c0,0,0,4,0,6.2c0,1.8,0.2,4.3,0.7,6.3c0.3,1.5,0.6,3,1,4.5
	c3.2,15,5,30.4,5.2,45.8c0.2,19.1-2.5,38.3-0.3,57.4c1.7,14.5,6.3,28.7,15.6,39.9c10.1,12.3,24.7,17.2,39.9,18.2
	c17.7,1.1,35.8-0.9,53.6-1.7c18.7-0.9,37.5-1.6,56.2-2.6c9.2-0.5,18.5-1.2,27.5-3c7.5-1.5,16-3.4,20.2-10.7
	c4.1-7.2,5.2-17.1,6.7-25.2c1.7-9.1,2.9-18.4,3.7-27.7C1320.8,317.5,1315.3,275.7,1310.9,234.3z M1097.7,261.8
	c-0.6-4.1-0.3-8.3,0.8-12.3c2.8-10,9.5-17.8,17.7-23.6c0,0.1,0,0.2,0,0.3c0,0.1,0,0.3,0,0.3c0,0.2-0.1,0.5-0.2,0.7
	c0,0.1,0,0.1,0,0.1c0,0,0,0,0,0.1c-0.1,0.2-0.2,0.5-0.4,0.7c0,0.1-0.1,0.2-0.2,0.2c-0.1,0.1-0.3,0.3-0.4,0.4c0,0-0.3,0.2-0.4,0.3
	c-0.2,0.1-0.5,0.3-0.7,0.4c-1.5,0.7-1.8,2.9-1.1,4.2c0.9,1.5,2.6,1.8,4.1,1.1c3.2-1.5,5.1-4.9,5.2-8.4c0.1-1.3-0.9-2.4-2-2.9
	c3-1.8,6.2-3.4,9.4-4.6c15.6-6.3,33-9.1,49.6-10.9c17.7-1.9,35.6-2.2,53.3-0.8c1.6,0.1,3.3,0.3,5.1,0.4c-1.7,0.9-4.7,3.6-6.7,2.6
	c-3.4-1.8-6.5,3.5-3,5.3c4.8,2.6,8.6-0.6,12.9-2.6c1.5-0.7,1.8-2.9,1.1-4.2c-0.1-0.3-0.3-0.5-0.5-0.7c11.5,1.1,26.2,3.3,38.3,8.1
	c-0.9,0.5-1.4,1.5-1.5,2.7c-0.7,6.2,4.2,11.3,9.9,12.1c1.6,0.2,3-1.6,3-3.1c0-1.9-1.4-2.9-3-3.1c-2.7-0.4-4.2-3.5-3.9-6
	c0-0.2,0-0.5,0-0.7c13.3,6.6,22,17.2,16.2,34.8c-5,15.2-20,25.3-33.5,31.9c-14.4,7-30.4,10.4-46.2,11.4c-19.6,1.3-39.1-1-58.4-4.4
	c-10-1.7-20-3.7-30-5.8c-8.3-1.7-16.7-3.6-24.6-6.6c-4.3-3.2-7.3-7.8-8.9-12.8C1098.4,264.9,1098,263.4,1097.7,261.8z"/>
<path d="M1087,260"/>
<path d="M1159.8,221.6c-7.2-1.5-14.9-2.7-21.4,1.7c-3.2,2.2-0.2,7.5,3,5.3c5.1-3.5,11.1-2.3,16.7-1.1
	C1162,228.3,1163.6,222.4,1159.8,221.6z"/>
<path d="M1148.9,276.9c-4.2-2.4-9.6-7-14.5-7.2c-5-0.2-10.2,4.1-13.9,7.1c-3,2.5,1.3,6.9,4.2,4.4c3-2.5,7.5-6.1,11.4-4.5
	c3.3,1.4,6.5,3.7,9.7,5.5C1149.3,284.1,1152.3,278.8,1148.9,276.9z"/>
<path class="st1" d="M1284.7,312.6c-26.1,12.6-55.5,13.4-83.8,11.8c-14.8-0.8-29.5-2.2-44.2-3.5c-15.1-1.3-30.2-2.8-44.3-8.8
	c-3.6-1.5-5.1,4.5-1.6,6c14.3,6.1,29.8,7.6,45.1,8.9c15.5,1.3,31,2.8,46.5,3.6c29,1.5,58.6,0.1,85.3-12.7
	C1291.2,316.3,1288.1,311,1284.7,312.6z"/>
<path class="st1" d="M1265.4,341.3c-40.6,10.8-83.1,13-124.6,6.3c-3.8-0.6-5.4,5.3-1.6,6c42.6,6.9,86.1,4.9,127.8-6.3
	C1270.8,346.3,1269.2,340.3,1265.4,341.3z"/>
<path class="st1" d="M1261.7,374.7c-7,4-15.6,4.1-23.4,4.8c-7.9,0.7-15.7,1.2-23.6,1.6c-16.3,0.7-32.7,0.6-49-0.1
	c-3.9-0.2-3.9,6,0,6.2c17.5,0.8,35,0.9,52.4,0c8.4-0.4,16.9-1.1,25.3-1.9c7.4-0.7,14.8-1.4,21.4-5.2
	C1268.1,378.1,1265.1,372.8,1261.7,374.7z"/>
<path d="M1222.7,282.1c-3.3,1-6.6,1.3-10,0.5c-2.5-0.6-4.5-2.2-6.9-2.8c-4.8-1.3-8,2.2-12.2,3.8c-3.6,1.3-2,7.3,1.6,6
	c2.2-0.8,4.1-2.3,6.2-3.2c2.9-1.2,5,0.6,7.6,1.6c5,1.8,10.2,1.7,15.3,0.2C1228,286.9,1226.4,281,1222.7,282.1z"/>
<path d="M1278.6,252.6c-3.2,1.7-7,2.6-9.3,5.7c-1,1.3-1.5,2.8-1.8,4.4c-0.2,1.5,1.2,10-1.2,9.9c-3.9-0.1-3.9,6,0,6.2
	c4.9,0.2,7.6-4.2,7.6-8.9c0-3.1-1.6-6.5,1.2-8.8c1.8-1.5,4.6-2.1,6.6-3.2C1285.1,256.1,1282.1,250.8,1278.6,252.6z"/>
<path d="M1116,260.2c-0.4,0-1.5-0.1-1.8-0.5c0.1,0.2,0.2,0,0.4-0.6c0.3-1.7,0.6-3.1,0.2-4.8c-0.8-3.1-3.3-5.6-6.4-6.2
	c-3.8-0.8-5.4,5.2-1.6,6c4,0.8,1,5,1.7,7.6c1,3.4,4.5,4.3,7.5,4.7C1119.8,266.9,1119.7,260.7,1116,260.2z"/>
<path d="M1209.2,216.5c-6.6-5.2-15.5-5.6-22.6-1.4c-3.4,2-0.3,7.3,3,5.3c5.5-3.2,11.7-2.5,16.6,1.4
	C1209.2,224.3,1212.2,218.9,1209.2,216.5z"/>
<path d="M1261,245.8c-5.1-6.4-15.9-7.9-23.3-8.6c-11.6-1.1-23.3-0.7-34.9-0.9c-12.4-0.2-24.9-0.4-37.3-0.6c-0.4-0.3-1-0.4-1.7-0.4
	c-8.7,0.8-18.7-2.7-26.2,3.5c-5.2,4.3-6.5,12.9-1,17.4c3.4,2.8,8.3,4.2,12.3,5.6c4.8,1.6,9.7,2.8,14.7,3.6
	c9.8,1.7,19.7,2.3,29.7,2.6c11.1,0.4,22.2,0.7,33.4,1c9,0.3,18.7,0.3,26.6-4.7C1258.5,260.9,1266.2,252.3,1261,245.8z M1147.2,241.1
	c-0.1,0.2-0.1,0.5-0.2,0.8c-0.3,3.7-3.8,5.4-7,4.3c-0.2-0.1-0.4-0.1-0.6-0.1C1140.7,242.9,1143.7,241.6,1147.2,241.1z M1153.2,256.7
	c-1.9-0.6-3.8-1.2-5.6-1.9c-1.5-0.6-3.4-1.2-5.1-2c5.5-0.3,10-4.8,10.5-10.9c0-0.3,0-0.6-0.1-0.9c3.7,0.2,7.3,0.7,10,0.5
	c0.4,0.2,0.8,0.3,1.3,0.3c8.7,0.1,17.4,0.3,26.2,0.4c0,0.1-0.1,0.1-0.1,0.2c-2.1,3.5-9.4,0.8-12.8,1.6c-4.3,1.1-6,5.6-10.6,6
	c-3.7,0.3-7.6-0.3-11,1.6C1153.5,253,1153,254.8,1153.2,256.7z M1195.3,262c-11.6-0.3-23.3-1-34.6-3.4c-0.2-0.1-0.5-0.1-0.7-0.2
	c-0.2-0.5-0.4-1.1-0.6-1.6c2.6-1.3,6.8-0.5,9.3-0.8c3.7-0.5,5.5-2.2,8.2-4.6c3.2-2.8,7.7-0.8,11.6-1.3c3-0.4,5.4-1.8,7.1-4.5
	c0.2-0.3,0.3-0.7,0.4-1c0.2-0.1,0.4-0.3,0.6-0.4c0.2-0.2,0.3-0.3,0.5-0.5c0.3-0.3,0.5-0.6,0.6-1c0-0.1,0.1-0.2,0.1-0.2
	c5.5,0.1,10.9,0.2,16.4,0.3c0.4,4.1,0.4,8.7-4.6,9.1c-2.9,0.2-5.6-0.8-8.5,0C1195.7,253.1,1194.5,257.5,1195.3,262z M1232.4,263
	c-8.2,0.1-16.4-0.4-24.6-0.7c-2.1-0.1-4.2-0.1-6.3-0.2c-0.6-2-0.8-4.1,1.8-4.7c1.1-0.3,2.4,0.1,3.5,0.2c2.9,0.2,5.7,0.4,8.3-1.2
	c4.8-2.9,5.3-8.6,4.9-13.8c4.4,0,8.9,0,13.3,0.3c-0.1,1,0.3,2.1,1.3,2.9c0.8,0.6,3,2,2.3,3.4c-0.2,0.4-2.2,1-2.6,1.2
	c-1.5,0.9-2.8,2.1-3.4,3.8C1229.6,257.4,1230.7,260.4,1232.4,263z M1254.5,255.2c-3.8,4.7-9.4,6.6-15.2,7.4c-0.1-0.5-0.3-1-0.7-1.4
	c-0.7-0.9-2.6-2.8-2.3-4.2c0.3-1.3,1.8-1.5,2.7-2c1.7-0.9,3.1-2.1,3.7-4c1-2.8,0-5.3-1.7-7.3c2.8,0.4,5.6,1.1,8.2,2
	c1.7,0.6,4.3,1.4,5.6,2.8C1257.1,250.7,1256.2,253.1,1254.5,255.2z"/>
<path class="st3" d="M885.1,129.8c-8.9-4.8-18.5-8-28.4-9.7c-0.4-0.1-0.7-0.1-1,0c-0.7-1.1-1.9-1.7-3.5-1
	c-9.2,3.8-16.8,10.5-20.9,19.7c-5,11.1-2,20.3,5.2,29.4c3.3,4.2,7.2,8,11.5,11.2c3.6,2.7,8.4,6.5,13,6.8c1.4,0.1,2.9-0.2,4.4-0.7
	c0.4,0.4,0.8,0.7,1.4,0.9c2.7,1.1,5.3,0.5,7.6-1.1c0.5-0.3,0.9-0.7,1.3-1.1c6.3-2.2,13.1-5,16.6-9.9c5-7,6.7-18.8,6.7-27.3
	C899,137.8,892.5,133.8,885.1,129.8z"/>
<path d="M875.2,115.2c-10.5-3.4-21.8-4.2-32.3-0.6c-0.8,0.3,0.3-0.2-0.3,0.3c-0.4,0.3,0.5-0.5,0-0.3c-11.1,4.9-21.4,21.5-21.6,37
	c-0.2,17.1,13.8,31.5,29.1,37.9c14.9,6.2,34,3.5,44.9-9.4c11.5-13.6,17.5-35.4,4.9-50.2C893.6,122.6,884.2,118.1,875.2,115.2z
	 M852.6,123.3c11.4-1.5,23.5,2.1,33.2,8.4c5.3,3.4,9.9,8.3,10.8,14.9c0.9,7-1.8,14.1-5,20.1c-13.6,25.2-48,16.9-58-7.2
	c-5.3-12.6,7.6-37,24.5-36.8"/>
<path d="M1004.6,133.8c-4.3-27.7-15.9-53.4-28.1-78.2c-10.8-21.9-21.7-48-44.8-58.7c-5.4-2.5-11-3.9-17-4.2c0,0-0.1,0.1-0.1,0.1
	c-11.7-2.9-26.8-3.2-38.7-3.8c-12.9-0.6-26.2,0.4-37.9,6.5C817.9,5.7,807,27.8,797.9,47.7c-11.5,25-23,50.2-30.4,76.8
	c-3.6,13-6.2,26.3-7.2,39.8c-1,12.3-1.7,26.4,6,36.7c7.3,9.8,19.5,15.5,30.6,19.7c12,4.5,24.6,7,37.2,9.3c27.7,5.1,56.2,8.9,84.4,6
	c24.6-2.6,52.2-9.8,71.5-26.6c9.7-8.4,13.4-21.4,15.3-33.9C1007.2,161.5,1006.8,147.6,1004.6,133.8z M933.5,224.7
	C933.5,224.7,933.5,224.8,933.5,224.7c-0.8,0.2-1.6,0.4-2.3,0.5c-25.1,4.8-51.1,3.2-76.3-0.6c-22.8-3.5-47.8-6.7-68.3-18.4
	c-4.7-2.7-9.6-5.8-12.7-10.4c-3.4-5-3.9-11.1-3.9-17c0-12.3,1.5-24.5,4.1-36.5c5.2-24.3,14.6-47.4,24.6-69.9
	c5.2-11.5,10.2-23.2,16.2-34.3c5.3-9.9,11.6-19.7,20.3-26.7c10.4-8.3,23.2-10.5,36-10.3c12,0.2,24.6,1,36.4,3.8
	c0.1,0.2,0.2,0.4,0.4,0.6c4.5,6.5,8.3,13.4,11,20.9c2.9,7.9,4.4,16.3,6.2,24.5c3.5,15.6,10.4,29.4,18.1,43.2
	c7.8,14.1,15,28.1,18.2,44.2c3,15.3,2.4,31.4-2.1,46.4C954.7,200.4,945.7,214.2,933.5,224.7z M990.4,193
	c-4.9,11-15.9,16.8-26.1,21.7c-3.7,1.8-7.5,3.4-11.4,4.7c15.5-19.9,22.7-46.1,20.3-71.6c-1.6-16.9-7-32.7-14.8-47.6
	c-7.8-14.9-17.2-29.2-21.7-45.6c-2.6-9.5-3.9-19.4-7.1-28.8c-2.3-7-5.4-13.7-9.2-20c20.2,4.5,31.8,26.4,40.6,43.9
	c11.1,22.2,22.5,44.6,29.2,68.7c3.5,12.6,5.8,25.6,5.9,38.8C996.4,169,995.3,182.1,990.4,193z"/>
<path d="M914.7-7.4C914.7-7.4,914.7-7.4,914.7-7.4C915-7.7,913.6-7.4,914.7-7.4z"/>
<path d="M835.9,72.7c-2.5,1.1-3.4,3.7-3.4,6.3c0,0.6,0.3,1.4,0.2,2c-0.3,1.4-0.2,1-2,1.1c-2.3,0.2-4.6,0.6-6.9,0.9
	c-2.7,0.4-5.6,0.9-7.8,2.8c-1,0.8-1.8,1.9-2.3,3.1c-0.4,1,0,3.7-0.5,4.4c-2.4,3.1,1.8,7.5,4.2,4.4c1.7-2.2,1-5.7,2.7-7.3
	c2.2-2,7.8-1.7,10.5-2c2.6-0.3,5.6-0.4,7.2-2.8c1-1.4,0.1-7.1,1.1-7.5C842.5,76.5,839.4,71.2,835.9,72.7z"/>
<path d="M882.3,69.8c-0.1,2.6-0.4,5.8-3.4,4.3c-1.9-1-3.5-2.4-5.7-2.8c-4.7-0.9-8,2.9-10,6.7c-1.9,3.5,3.3,6.6,5.2,3.1
	c0.6-1.1,1.6-3.4,3-3.7c1.3-0.3,2.7,0.9,3.7,1.6c2,1.2,4.1,2.3,6.5,1.9c5.3-0.8,6.6-6.4,6.8-11.1C888.4,65.8,882.4,65.8,882.3,69.8z
	"/>
<path d="M860.2,37.8c-2.2,0.6-4.4-0.8-6.5-1.5c-2-0.6-4.1-1-6.2-0.5c-4,1-6.6,5-6.4,9.2c0.2,4,6.2,4,6,0c-0.2-4.6,4.2-2.9,6.7-2
	c2.6,1,5.1,1.5,7.9,0.8C865.5,42.7,864,36.8,860.2,37.8z"/>
<path d="M909.1,26.9c-0.6-3.9-6.4-2.3-5.8,1.6c0.2,1.5-4.7,0.5-5.2,0.4c-2-0.4-4.1-0.8-6.1-0.3c-3.4,0.8-6.1,3.6-6,7.3
	c0.2,4,6.2,4,6,0c-0.1-2.6,5-0.9,6.1-0.7c2,0.4,4,0.6,6,0C907.7,34,909.7,30.7,909.1,26.9z"/>
<path d="M950.7,41.3c-0.9-4.7-3.5-8.8-6.9-11.9c-2.9-2.6-7.1,1.7-4.2,4.4c2.7,2.5,5.2,5.9,5.4,9.8c-2.7,4-3.9,8.2-1,12.9
	c2.1,3.4,7.3,0.3,5.2-3.1c-1.8-3-0.2-4.4,1.2-6.9C951.2,44.8,951.1,43.1,950.7,41.3z"/>
<path d="M965.1,78.4c-1.6-2.3-3.5-3.1-5.6-4.6c-1.8-1.3-0.9-1.2-0.1-3.3c0.5-1.3,0.7-2.3,0.7-3.7c-0.1-4-6.1-4-6,0
	c0.1,2.2-2,4.1-2.1,6.4c-0.1,1.9,0.6,3.5,2,4.7c2.3,1.9,5,1.8,6.7,4.7c1.7,3,1.2,6.2-0.6,9c-2.1,3.3,3.1,6.4,5.2,3.1
	C968.4,89.6,968.5,83.3,965.1,78.4z"/>
<path d="M986.8,117.8c-1.3-3.7-7.1-2.1-5.8,1.6c0.6,1.6-0.4,2.1-1.7,2.1c-1.6,0-2.9-0.2-4.3,0.8c-3.1,2.3-1.6,7.9-1,11
	c0.8,3.9,6.5,2.2,5.8-1.6c-0.2-1.1-0.1-2.9-0.5-4c1.4,0.2,3.1-0.4,4.2-1.1C986.6,124.9,988,121.1,986.8,117.8z"/>
<path d="M984.8,159.1c-2.3,1.4-3.5,3.3-4.1,6c-0.6,2.5,0.5,6-0.5,8.3c-1.2,2.7-5,2.8-6.4,5.5c-1.4,2.5-0.9,5.6-0.2,8.2
	c0.9,3.9,6.7,2.2,5.8-1.6c-0.3-1.3-0.9-2.8,0.2-4c0.5-0.5,1.7-0.6,2.3-1c1.7-0.9,2.9-2.2,3.7-4c1.3-3-0.6-10.3,2.3-12.1
	C991.1,162.4,988.1,157,984.8,159.1z"/>
<path d="M920,96.8c-1,5.7-6.6-0.5-9.5-0.6c-4-0.2-7.1,3.1-8.9,6.4c-1.9,3.5,3.3,6.6,5.2,3.1c0.8-1.4,1.6-2.9,3.3-3
	c1.4-0.1,2,1,3.2,1.7c1.7,1,3.3,1.4,5.2,1.1c3.6-0.5,6.7-3.3,7.3-7C926.5,94.6,920.7,92.9,920,96.8z"/>
<path d="M941.5,142.3c0.1,3.6-4.5,6.1-6.7,8.5c-1.4,1.6-2.4,3-4.6,3.3c-1.7,0.3-3.3-0.5-5-0.3c-4.7,0.6-5.8,5.6-5.5,9.7
	c0.3,3.9,6.3,4,6,0c-0.1-2.2-0.6-3.1,1.7-3.4c1-0.1,2.1,0.2,3.2,0.1c2.7-0.3,5-1.5,6.9-3.4c2.4-2.4,5.1-4.8,7.3-7.4
	c1.8-2.1,2.7-4.4,2.6-7.2C947.4,138.3,941.4,138.3,941.5,142.3z"/>
<path d="M931.2,119.1c-0.4,1.6-0.7,3.3-1.7,4.7c-0.9,1.3-1.8,1.3-3.2,1.4c-3.4,0.3-4.7,3.3-4.9,6.4c-0.2,4,5.8,4,6,0
	c0-0.1,0-0.1,0-0.2c0.6,0,1.3-0.1,1.8-0.3c1.4-0.3,2.7-1.1,3.8-2.1c2.3-2.2,3.2-5.2,4-8.2C937.9,116.9,932.1,115.2,931.2,119.1z"/>
<path d="M939.7,190.6c-2.4-1.3-4.5-0.9-6.7,0.6c-3.9,2.8-5.3,5.9-10.4,3.4c-2.6-1.3-4.4-2.7-7.4-1.5c-2.3,0.9-3.2,2.6-3.5,5
	c-0.5,3.9,5.5,3.9,6,0c-0.2,1.3,3.5,3,4.5,3.4c1.6,0.7,3.3,0.8,5,0.5c1.7-0.3,3.4-1.1,4.8-2c0.6-0.4,4.5-4,4.5-4
	C940.1,197.7,943.1,192.4,939.7,190.6z"/>
<path d="M897.2,210.8c-2.6-1.7-5.3-3.4-8-5.1c-2.1-1.3-4.3-3-6.8-3.1c-3.9-0.1-7.4,4.4-4.9,8.1c1.8,2.6,5.7,1,5.7-1.5
	c0.1,0,0.1,0,0.1,0c0.3,0.2,0.5,0.3,0.8,0.5c1.2,0.7,2.3,1.5,3.5,2.2c2.2,1.4,4.3,2.8,6.5,4.1C897.4,218.3,900.5,212.9,897.2,210.8z
	"/>
<path d="M853.6,203.7c-1.4,0.8-2.6,2.3-4.2,2.4c-1.9,0-4.2-2.3-5.8-3.3c-3.6-2.2-7.6-3.8-11.6-4.9c-3.7-1-5.3,4.9-1.6,6
	c3.1,0.9,6.1,2,8.9,3.5c2.3,1.3,4.4,3.1,6.8,4.2c4.6,2.1,6.6-0.5,10.4-2.6C860.1,207.2,857,201.8,853.6,203.7z"/>
<path d="M804.9,179.4c-4.1-0.5-4.5-5.3-4.9-8.5c-0.4-3.4-2.3-6-4.9-8.2c-4.2-3.7-11.1-3.3-11.7,3.4c-0.4,4,5.6,3.9,6,0
	c0,0.1,2.7,2.1,3,2.5c1.2,1.4,1.5,2.4,1.7,4.2c0.3,2.2,0.5,4.2,1.5,6.1c1.9,3.9,5.1,6.2,9.2,6.7C808.7,186,808.7,179.8,804.9,179.4z
	"/>
<path d="M807,118.5c1.7-3.6-3.5-6.7-5.2-3.1c-0.9,1.9-1.1,3.4-0.9,5.5c0.1,0.9,0.7,2.3,0.3,3.2c-0.5,1.4-2.3,1.7-3.4,2.4
	c-1.6,0.9-3,2.2-3.6,3.9c-0.8,2.2,0.4,3.7,0.2,5.8c-0.4,4,5.6,3.9,6,0c0.2-1.9-1.1-3.2,0.4-4.4c1.4-1.1,3.2-1.4,4.5-2.8
	c1-1.1,1.6-2.4,1.8-3.9C807.5,123.1,806.2,120.2,807,118.5z"/>
<path d="M869.8,7.2c-1.5,1-3.1,2.2-4.9,2.6c-2,0.5-3.2-0.5-5.1-0.7c-3.3-0.4-4.8,2.6-6.6,4.9c-2.3,3.1,1.9,7.5,4.2,4.4
	c0.5-0.7,1-1.3,1.5-2c0.3-0.4,0.9-0.8,0.8-1c0.5,0.2,1.2,0.6,1.6,0.7c0.7,0.2,1.5,0.2,2.3,0.2c3.3-0.1,6.4-1.9,9.1-3.7
	C876,10.4,873,5,869.8,7.2z"/>
<path d="M825.4,62.4c-0.4-1.6-2.2-2.7-3.7-2.2c-1.2,0.4-2,1.5-2.2,2.7c-1.1-0.8-2.9-0.6-3.8,0.4c-1.2,1.3-1.1,3,0,4.4
	c1.6,2,4.7,2.5,6.9,1.3C825,67.8,826,65,825.4,62.4z"/>
<path d="M916.9,70.8C916.9,70.8,917,70.8,916.9,70.8C917,70.8,917,70.8,916.9,70.8C917,70.8,916.9,70.8,916.9,70.8
	C916.9,70.8,916.9,70.8,916.9,70.8z"/>
<path d="M921.7,72.1c-0.8-1.4-2.7-2-4.1-1.1c0,0,0,0,0,0c0,0-0.1,0-0.1,0c-0.1,0-0.2-0.1-0.3-0.1c-0.1,0-0.1,0-0.1-0.1
	c0,0-0.1,0-0.1-0.1c0,0,0,0,0,0c0,0,0,0,0,0c0,0,0,0,0,0c0,0,0,0,0,0c0,0,0,0,0.1,0c0,0,0,0,0,0c0.1,0,0.3,0.1,0,0c0,0,0,0-0.1-0.1
	c0-0.1,0-0.2,0-0.4c0.2-1.7-1.5-3.1-3-3.1c-1.8,0-2.8,1.4-3,3.1c-0.6,5,5.7,8.6,9.7,6C922,75.5,922.5,73.6,921.7,72.1z"/>
<path d="M916.9,70.8C916.9,70.8,916.9,70.8,916.9,70.8C916.9,70.8,916.9,70.8,916.9,70.8z"/>
<path d="M916.9,70.8C916.9,70.8,916.9,70.8,916.9,70.8C916.9,70.8,916.9,70.8,916.9,70.8C916.9,70.8,916.9,70.8,916.9,70.8z"/>
<path d="M915.7,177.9c-1-1.1-3.2-1.3-4.2,0c0,0-0.1,0.2-0.2,0.3c0,0,0,0,0,0c0-0.1-0.1,0,0,0c0,0-0.1,0-0.1,0c-0.1,0-0.2,0-0.2,0
	c0,0,0,0-0.1,0c0,0-0.1,0-0.1,0c0,0,0,0,0,0c-0.1,0-0.1-0.1-0.1-0.1c-0.1-0.2-0.1-0.2-0.1-0.1c0,0,0,0.1,0.1,0.1c0,0,0,0,0,0
	c0,0,0,0.1,0,0.1c0,0,0,0,0,0c0,0,0-0.1,0-0.1c-0.1-0.1-0.1-0.1,0-0.1c-0.7-1.3-1.9-2.1-3.5-1.7c-1.4,0.4-2.7,2.2-2.1,3.8
	c0.9,2.2,2.5,3.8,4.8,4.2c2.2,0.4,4.6-0.2,6-2C916.7,181,917,179.2,915.7,177.9z"/>
<path d="M910.5,178.1C910.5,178,910.5,178,910.5,178.1C910.5,178,910.5,178,910.5,178.1C910.5,178,910.5,178,910.5,178.1
	C910.5,178.1,910.5,178.1,910.5,178.1z"/>
<path d="M814,196.3c-1.3-1.3-3-1-4.2,0c-0.3,0.3-3.2,2.5-3.4,1.3c-0.9-3.9-6.7-2.2-5.8,1.6c0.6,2.9,3.2,4.6,6,4.8
	c2.9,0.2,5.3-1.7,7.5-3.4C815.3,199.7,815,197.4,814,196.3z"/>
<path d="M982.3,100.4c-1.1-1.1-3.2-1.3-4.2,0c-1,1.2-2,2.5-3,3.7c-0.1,0.1-0.1,0.1-0.2,0.2c-0.1-0.1-0.1-0.2-0.2-0.2
	c-2.1-3.3-7.3-0.2-5.2,3.1c1.4,2.3,3.8,4.6,6.7,3.7c2.6-0.8,4.4-4.1,6-6.1C983.4,103.5,983.6,101.7,982.3,100.4z"/>
<path d="M975.7,198.7c-0.5,0.2-1.5-0.3-2-0.4c-0.9-0.2-1.9-0.4-2.9-0.3c-1.5,0.1-2.5,0.6-3.5,1.5c-0.6,0.1-1.1,0.4-1.5,0.8
	c-0.5,0.5-0.8,1-1,1.8c-0.2,1-0.1,2.3,0.8,3c1.2,1.1,2.7,1.4,4.1,0.5c0.7-0.4,0.8-0.9,1.3-1.4c0,0,0.1,0,0.1,0c1,0,2,0.4,3,0.6
	c1.6,0.2,2.9,0,4.4-0.7C982.3,202.3,979.2,197,975.7,198.7z"/>
</svg>
